<svg xmlns="http://www.w3.org/2000/svg" viewBox="0 0 281.55 153.12"><title>Asset 1</title><g id="Layer_2" data-name="Layer 2"><g id="Layer_1-2" data-name="Layer 1"><path d="M171.35,121.41c-3.09,3.38-16.34,18-46.35,19C86.46,141.69,64.42,117.15,52.85,109c-3.2-2.27,23-60,32.71-76.42C100,8.05,110.72,8.47,105.29,3.49c-3.56-3.26-7.05-4.16-9.82-3C75,8.89,39.88,92.89,38.58,94.74c-.78,1.11-1.58,1.24-2.93.65-.69-.29-9.79-3.68-14-4.42C-2.78,86.63-11.29,123,21.52,125c0,0,10.09.63,20.92-8.56,1.68-1.43,2.13-1.5,3.78-.14.47.39.9.82,1.37,1.21,4.19,3.38,34.82,37.56,87.16,35.49,20.77-.82,42-16.2,43.37-20.51C180,126.68,175.1,117.32,171.35,121.41ZM21.59,112.17a13.71,13.71,0,0,1-4.68-.37c-10.86-3.33-2-11.49,2.9-11.54A16.83,16.83,0,0,1,28.23,102C31.34,103.63,38.15,108.57,21.59,112.17Z"/><path d="M136.76,75.07c-1.29.93-6.24,9.51-11.24,14.9-.84,1-6.93,8.7-10.5,8.87-7.83,1.55-7.82-9.52-8.65-11.57-9.56,14.41-23.35,14.66-27.18,7.1C75.1,85.7,83.8,67.8,88,62a2.26,2.26,0,0,1,1.7-1.17c4.8-.4,8.55,3.87,6.77,7.92-.42,1-.65,2-1.08,3-2.35,5.32-10.7,26.94-2,17.57C99.76,82.94,115,62.93,115.3,62.43c.8-1.48,1.58-1.89,3.14-1.23a12.16,12.16,0,0,1,6.37,5.24c1,1.93-9.29,16.27-7.52,23,.69.36,1-.24,1.45-.53,11.78-15.37,20.7-29,24.4-29.67A9.93,9.93,0,0,1,148,61.08a6.3,6.3,0,0,1,2,7.2c-2.39,9.16-9.77,40.49-8.07,41,14.3-32.22,26.58-47.45,39.1-45.5,2.15.66,3-3.12,3.92-5.34,14.17-35.63,26.16-53.57,30.17-57,2.63-2.77,15.26-1.92,8.81,6.2-10.1,12.71-38.86,77.83-31.33,78.46,3.68-4.89,7.28-9.82,10.87-14.77,3.2-4.42,6.16-9,9.59-13.3.81-1,1.55-2.49,3.26-1.89,2.11.74,4.52.95,5.21,3.91s-.22,5.48-1.32,7.95C210,87.29,212,91.07,213.41,90.69c2.37-.62,23.48-24,31.05-33.92.59-.77.8-1.07,1.61-.94,3.64.61,7.15,4.91,7.09,8.67-.11,5.88-11.48,37-11.12,37.47.48.64,11.63-.79,20.32-11.3,5.44-5.8,7.92-11.09,10.15-14.36.91-1.34,3.29-1.74,5-.92a11.82,11.82,0,0,1,3.8,3.27c1.7,2.5-6,12.6-9.6,16.4-10.72,12.42-27.14,16.42-31.83,16.68-12.85,39-38.06,42.44-48.13,21.51-.81-1.57-10.46-18.51,11-28.15,7.42-2.9,14.59-1.89,22.67-1.59,3.57.17,3.38-1.13,5.85-8.25,1.68-4.79,6.9-17.08,7-18.92-.88.28-9.17,13.61-19.18,20.48-15.11,7.82-17-8.77-17.54-11.27-.24-1.17-9.15,15.88-18.51,6.93-4.43-6.47-3.79-13.67-2-21.16.09-.4.28-.77.36-1.16.28-1.44-.1-1.81-1.49-1.34C173.33,70,162.07,91,159.62,96.09c-4.6,9.62-12.78,32.15-23,29-10.09-1.77-1.95-40-.51-46.82C136.32,77.4,136.49,76.47,136.76,75.07Zm62.34,60.38c16.44,10.79,27.7-23.79,27.79-24.18.18-.74-14.41-2.94-25,4C193.07,122.6,193.57,130.63,199.1,135.45Z"/></g></g></svg>